<svg xmlns="http://www.w3.org/2000/svg" viewBox="0 0 844 606"><path fill="#FFF" d="M431.548 474.773h-19.82c-29.5 0-53.5-24-53.5-53.5v-33.93c0-29.5 24-53.5 53.5-53.5h19.82c29.5 0 53.5 24 53.5 53.5v33.93c0 29.5-24 53.5-53.5 53.5zm-19.82-135.929c-26.743 0-48.5 21.757-48.5 48.5v33.93c0 26.743 21.757 48.5 48.5 48.5h19.82c26.743 0 48.5-21.757 48.5-48.5v-33.93c0-26.743-21.757-48.5-48.5-48.5h-19.82z"/><circle fill="#FFF" cx="385.565" cy="391.848" r="6.505"/><circle fill="#FFF" cx="430.508" cy="391.848" r="6.505"/><path fill="#FFF" d="M403.306 404.4a2.5 2.5 0 0 1-2.5-2.5v-26.61a2.5 2.5 0 1 1 5 0v26.61a2.5 2.5 0 0 1-2.5 2.5z"/><path fill="#FFF" d="M480.184 388.435h-.06c-47.831-1.113-59.208-16.208-67.787-31.82-13.171 24.257-47.33 29.781-48.864 30.017a2.5 2.5 0 0 1-.762-4.941c.371-.058 37.15-6.036 47.137-31.557a2.5 2.5 0 0 1 4.533-.269l.464.868c8.684 16.238 16.885 31.575 65.397 32.704a2.499 2.499 0 0 1-.058 4.998zM345.515 346c-.64 0-1.279-.244-1.768-.732l-9.241-9.241a2.498 2.498 0 0 1 0-3.535 2.498 2.498 0 0 1 3.535 0l9.241 9.241a2.498 2.498 0 0 1-1.767 4.267zM331.585 378.498h-13.068a2.5 2.5 0 1 1 0-5h13.068a2.5 2.5 0 1 1 0 5zM330.838 416.541a2.5 2.5 0 0 1-1.768-4.268l9.24-9.241a2.499 2.499 0 1 1 3.535 3.536l-9.24 9.241a2.489 2.489 0 0 1-1.767.732zM599.277 248.465h-6.83c-5.034 0-9.129-4.095-9.129-9.129v-4.531h-50.056v4.531c0 5.034-4.095 9.129-9.129 9.129h-6.83c-5.034 0-9.129-4.095-9.129-9.129v-11.165c-4.346-4.269-6.756-9.861-6.828-15.881a2.129 2.129 0 0 1-.017-.278v-68.314c0-27.334 29.398-29.623 56.953-29.623 27.556 0 56.953 2.289 56.953 29.623v68.314a22.673 22.673 0 0 1-6.83 16.166v11.159c.001 5.033-4.094 9.128-9.128 9.128zm-68.313-18.258h54.654a2.299 2.299 0 0 1 2.299 2.299v6.83a4.536 4.536 0 0 0 4.531 4.531h6.83a4.536 4.536 0 0 0 4.531-4.531v-12.158c0-.657.281-1.282.772-1.718a18.062 18.062 0 0 0 6.057-13.452v-68.309c0-20.839-20.032-25.025-52.355-25.025-32.323 0-52.355 4.186-52.355 25.025v68.049c.01.087.015.175.015.264 0 5.15 2.155 9.929 6.07 13.459.484.436.76 1.057.76 1.708v12.158a4.536 4.536 0 0 0 4.531 4.531h6.83a4.536 4.536 0 0 0 4.531-4.531v-6.83a2.299 2.299 0 0 1 2.299-2.3zm58.076-9.061c-6.918 0-12.546-5.628-12.546-12.546 0-6.918 5.628-12.547 12.546-12.547s12.546 5.628 12.546 12.547c0 6.918-5.628 12.546-12.546 12.546zm0-20.495c-4.383 0-7.948 3.566-7.948 7.948 0 4.383 3.565 7.948 7.948 7.948 4.383 0 7.948-3.565 7.948-7.948 0-4.382-3.565-7.948-7.948-7.948zm-61.484 20.495c-6.918 0-12.546-5.628-12.546-12.546 0-6.918 5.628-12.547 12.546-12.547s12.546 5.628 12.546 12.547c0 6.918-5.628 12.546-12.546 12.546zm0-20.495c-4.383 0-7.948 3.566-7.948 7.948 0 4.383 3.565 7.948 7.948 7.948s7.948-3.565 7.948-7.948c0-4.382-3.565-7.948-7.948-7.948zm71.731-20.494h-81.978a2.299 2.299 0 0 1-2.299-2.299v-34.16a2.299 2.299 0 0 1 2.299-2.299h81.978a2.299 2.299 0 0 1 2.299 2.299v34.16a2.299 2.299 0 0 1-2.299 2.299zm-79.679-4.598h77.38v-29.561h-77.38v29.561zM729.69 490.462h-65.978a2.297 2.297 0 1 1-1.742-3.798l6.82-7.924c-10.596-2.265-18.07-7.885-19.372-14.751a2.285 2.285 0 0 1-.296-1.13v-92.827c0-.162.017-.32.049-.472.249-3.113 2.944-5.573 6.22-5.573h21.418c.988-6.019 6.425-10.636 12.964-10.636h1.544v-3.262h-10.158a2.299 2.299 0 0 1-2.299-2.299v-6.878a2.299 2.299 0 0 1 2.299-2.299h30.832a2.299 2.299 0 0 1 2.299 2.299v6.878a2.299 2.299 0 0 1-2.299 2.299h-9.993v3.262h1.592c6.539 0 11.976 4.617 12.964 10.636h21.424c3.233 0 5.899 2.395 6.209 5.45.051.188.078.386.078.59v92.832c0 .406-.105.788-.29 1.119-1.238 6.57-8.085 12.003-18.05 14.452l5.519 8.243c.342.401.548.922.548 1.491a2.303 2.303 0 0 1-2.302 2.298zm-60.966-4.598h56.642l-5.168-7.72a2.299 2.299 0 0 1 1.534-3.547c9.874-1.637 17.195-6.569 17.801-11.994.022-.193.066-.378.132-.553v-91.555a2.235 2.235 0 0 1-.049-.464c0-.797-.736-1.446-1.641-1.446h-23.562a2.299 2.299 0 0 1-2.299-2.299v-.326c0-4.417-3.825-8.011-8.526-8.011h-3.891a2.299 2.299 0 0 1-2.299-2.299v-7.86a2.299 2.299 0 0 1 2.299-2.299h9.993v-2.28h-26.234v2.28h10.158a2.299 2.299 0 0 1 2.299 2.299v7.86a2.299 2.299 0 0 1-2.299 2.299h-3.843c-4.701 0-8.526 3.594-8.526 8.011v.326a2.299 2.299 0 0 1-2.299 2.299h-23.557c-.904 0-1.641.649-1.641 1.446 0 .126-.01.25-.03.37v91.637c.068.179.115.368.137.566.644 5.787 8.895 10.943 19.618 12.261a2.302 2.302 0 0 1 1.462 3.782l-6.211 7.217zm54.447-16.806c-5.693 0-10.325-4.544-10.325-10.13 0-5.586 4.632-10.13 10.325-10.13s10.324 4.544 10.324 10.13c0 5.586-4.631 10.13-10.324 10.13zm0-15.662c-3.158 0-5.727 2.482-5.727 5.532s2.569 5.532 5.727 5.532c3.158 0 5.726-2.481 5.726-5.532 0-3.05-2.569-5.532-5.726-5.532zm-53.196 15.662c-5.693 0-10.325-4.544-10.325-10.13 0-5.586 4.632-10.13 10.325-10.13 5.696 0 10.33 4.544 10.33 10.13 0 5.586-4.634 10.13-10.33 10.13zm0-15.662c-3.158 0-5.727 2.482-5.727 5.532s2.569 5.532 5.727 5.532c3.16 0 5.732-2.481 5.732-5.532 0-3.05-2.572-5.532-5.732-5.532zm61.221-11.313h-69.247a2.299 2.299 0 0 1-2.299-2.299v-53.887a2.299 2.299 0 0 1 2.299-2.299h69.247a2.299 2.299 0 0 1 2.299 2.299v53.887a2.299 2.299 0 0 1-2.299 2.299zm-66.948-4.598h64.649v-49.289h-64.649v49.289zM705 381h-16.646c-3.564 0-6.463-2.833-6.463-6.317 0-3.483 2.899-6.317 6.463-6.317H705c3.561 0 6.458 2.834 6.458 6.317 0 3.484-2.897 6.317-6.458 6.317zm-16.646-8.036c-1.028 0-1.864.771-1.864 1.719 0 .947.836 1.718 1.864 1.718H705c1.026 0 1.86-.771 1.86-1.718 0-.948-.834-1.719-1.86-1.719h-16.646zM409.512 438.403c-8.788 0-15.538-2.49-20.061-7.399-6.516-7.073-5.823-16.493-5.79-16.89a2.498 2.498 0 0 1 2.491-2.295h44.943a2.5 2.5 0 0 1 2.485 2.228c.045.412 1.03 10.159-5.355 17.284-4.207 4.692-10.503 7.072-18.713 7.072zm-20.811-21.585c.229 2.693 1.133 7.245 4.463 10.835 3.538 3.815 9.039 5.75 16.349 5.75 6.709 0 11.743-1.81 14.963-5.38 3.297-3.656 4.033-8.441 4.159-11.205h-39.934zM373.679 458.332c-1.179 0-13.553-.273-43.792-10.916a2.5 2.5 0 0 1 .793-4.858c17.694-.265 26.086-37.205 27.826-51.417a2.5 2.5 0 0 1 4.963.606c-.243 1.991-5.522 43.366-24.25 53.559 24.648 8.061 34.361 8.035 34.464 8.026h.038a2.5 2.5 0 0 1 .036 4.999l-.078.001zM470.608 458.588h-.005a2.5 2.5 0 0 1 .004-5h.004c.097 0 9.988-.168 34.351-8.493-18.865-9.938-24.703-51.237-24.974-53.225a2.5 2.5 0 0 1 4.955-.673c1.933 14.187 10.824 51.01 28.521 51.035a2.5 2.5 0 0 1 .857 4.847c-30.944 11.364-43.147 11.509-43.713 11.509zM93.238 410.657H82.083a2.616 2.616 0 0 1-2.613-2.613v-19.35a2.616 2.616 0 0 1 2.613-2.613h11.154a2.616 2.616 0 0 1 2.613 2.613v19.35a2.616 2.616 0 0 1-2.612 2.613zm-9.175-4.592h7.195v-15.391h-7.195v15.391zM210.438 410.657h-11.154a2.617 2.617 0 0 1-2.614-2.613v-19.35a2.616 2.616 0 0 1 2.614-2.613h11.154a2.616 2.616 0 0 1 2.613 2.613v19.35a2.617 2.617 0 0 1-2.613 2.613zm-9.176-4.592h7.196v-15.391h-7.196v15.391z"/><path fill="#FFF" d="M191.446 480.428h-18.48a2.861 2.861 0 0 1-2.858-2.858v-11.43h-46.477v11.43a2.861 2.861 0 0 1-2.858 2.858h-18.481a2.86 2.86 0 0 1-2.857-2.858v-11.43H88.918a2.296 2.296 0 0 1-2.296-2.296V429c0-5.167 4.203-9.37 9.369-9.37h2.674v-10.705a9.29 9.29 0 0 1 3.61-7.324l2.434-18.19h-9.933a2.861 2.861 0 0 1-2.858-2.858v-21.279a2.86 2.86 0 0 1 2.858-2.857h103.101a2.862 2.862 0 0 1 2.859 2.857v21.279a2.862 2.862 0 0 1-2.859 2.858h-10.265l2.401 17.943a9.246 9.246 0 0 1 3.975 7.605v10.672h2.675c5.166 0 9.369 4.203 9.369 9.37v34.844a2.296 2.296 0 0 1-2.296 2.296h-9.431v11.43a2.862 2.862 0 0 1-2.859 2.857zm-16.745-4.593h15.012v-11.991a2.296 2.296 0 0 1 2.296-2.296h9.431V429a4.783 4.783 0 0 0-4.777-4.778h-4.971a2.296 2.296 0 0 1-2.296-2.296v-12.968a4.687 4.687 0 0 0-2.565-4.172 2.294 2.294 0 0 1-1.223-1.736l-2.894-21.63a2.297 2.297 0 0 1 2.275-2.601h11.155V361.01H96.51v17.809h10.822a2.294 2.294 0 0 1 2.275 2.601l-2.918 21.806a2.292 2.292 0 0 1-1.116 1.677 4.68 4.68 0 0 0-2.318 4.022v13.001a2.296 2.296 0 0 1-2.296 2.296h-4.97A4.783 4.783 0 0 0 91.212 429v32.548h10.518a2.296 2.296 0 0 1 2.296 2.296v11.991h15.011v-11.991a2.296 2.296 0 0 1 2.296-2.296h51.069a2.296 2.296 0 0 1 2.296 2.296v11.991zm-2.007-44.042c-6.666 0-12.089-5.423-12.089-12.088 0-6.666 5.423-12.089 12.089-12.089s12.089 5.423 12.089 12.089c0 6.665-5.423 12.088-12.089 12.088zm0-19.585c-4.134 0-7.496 3.363-7.496 7.497 0 4.133 3.363 7.496 7.496 7.496 4.134 0 7.496-3.363 7.496-7.496.001-4.134-3.362-7.497-7.496-7.497zm-52.734 19.585c-6.666 0-12.089-5.423-12.089-12.088 0-6.666 5.423-12.089 12.089-12.089s12.089 5.423 12.089 12.089c-.001 6.665-5.424 12.088-12.089 12.088zm0-19.585c-4.134 0-7.496 3.363-7.496 7.497 0 4.133 3.363 7.496 7.496 7.496s7.496-3.363 7.496-7.496c0-4.134-3.363-7.497-7.496-7.497zm59.401-7.944h-66.4a2.298 2.298 0 0 1-2.277-2.588l2.679-20.853a2.296 2.296 0 0 1 2.277-2.004h61.041c1.155 0 2.13.858 2.277 2.003l2.68 20.853a2.298 2.298 0 0 1-2.277 2.589zm-63.79-4.592h61.18l-2.09-16.261H117.66l-2.089 16.261z"/><path fill="#FFF" d="M137.926 448.719a2.296 2.296 0 0 1-2.296-2.296v-29.107a2.296 2.296 0 0 1 4.592 0v29.107a2.296 2.296 0 0 1-2.296 2.296zM146.415 448.719a2.296 2.296 0 0 1-2.296-2.296v-29.107a2.296 2.296 0 0 1 4.592 0v29.107a2.296 2.296 0 0 1-2.296 2.296zM155.04 448.719a2.296 2.296 0 0 1-2.296-2.296v-29.107a2.296 2.296 0 0 1 4.592 0v29.107a2.296 2.296 0 0 1-2.296 2.296z"/><path fill="#FFF" d="M146.461 526.41c-61.655 0-111.816-50.16-111.816-111.816s50.16-111.816 111.816-111.816 111.816 50.16 111.816 111.816S208.116 526.41 146.461 526.41zm0-219.04c-59.123 0-107.224 48.1-107.224 107.224s48.1 107.224 107.224 107.224 107.224-48.1 107.224-107.224S205.584 307.37 146.461 307.37z"/><g><path fill="#FFF" d="M327.648 244.44h-13.851c-3.268 0-5.64-2.573-5.64-6.117v-6.301h-50.813v6.301c0 3.316-2.583 6.117-5.64 6.117h-13.851c-3.268 0-5.64-2.573-5.64-6.117v-14.188c-3.616-1.741-6.12-5.469-6.207-9.477l-4.743-26.561a2.294 2.294 0 0 1 .226-1.469l5.061-9.661 6.618-53.428c.086-5.631 4.979-10.324 10.533-9.788h77.738c5.69 0 10.33 4.377 10.415 9.787l6.613 53.385 5.504 9.631c.266.467.361 1.013.266 1.543l-4.743 26.561c-.087 4.007-2.59 7.736-6.207 9.477v14.188c.001 3.315-2.582 6.117-5.639 6.117zm-72.6-17.011h55.406a2.296 2.296 0 0 1 2.296 2.296v8.597c0 1.012.352 1.525 1.048 1.525h13.851c.509 0 1.048-.784 1.048-1.525V222.56c0-1.025.68-1.926 1.666-2.208 2.233-.638 4.544-3.024 4.544-5.912 0-.135.012-.27.036-.404l4.63-25.928-5.319-9.307a2.285 2.285 0 0 1-.285-.857l-6.687-53.973a2.212 2.212 0 0 1-.017-.282c0-2.898-2.667-5.346-5.824-5.346h-77.856c-.084 0-.17-.004-.254-.014-2.85-.318-5.57 2.374-5.57 5.36 0 .094-.005.189-.017.282l-6.687 53.973a2.314 2.314 0 0 1-.245.783l-4.89 9.334 4.638 25.974c.024.133.036.268.036.404 0 2.888 2.31 5.274 4.544 5.912a2.297 2.297 0 0 1 1.666 2.208v15.762c0 1.012.352 1.525 1.048 1.525h13.851c.509 0 1.048-.784 1.048-1.525v-8.597a2.294 2.294 0 0 1 2.295-2.295zm70.69-14.513h-14.806c-1.515 0-3.024-.786-3.935-2.05-.812-1.126-1.05-2.488-.66-3.75l2.792-10.703c.194-2.123 2.11-3.08 3.163-3.607.204-.102.424-.174.65-.212l14.186-2.364a4.058 4.058 0 0 1 1.083-.148c2.536 0 4.6 2.357 4.6 5.254 0 .135-.012.27-.036.404l-2.361 13.219c-.143 2.203-2.186 3.957-4.676 3.957zm-14.95-4.67c.05.039.113.073.152.078h14.797a.713.713 0 0 0 .126-.01l.002-.008 2.345-13.128a1.082 1.082 0 0 0-.143-.451.613.613 0 0 1-.042.007l-13.983 2.331a7.439 7.439 0 0 0-.396.216.813.813 0 0 1-.016.067l-2.842 10.898zm-56.695 4.67h-15.284c-2.057 0-4.528-1.763-4.677-3.993l-1.871-13.099c-.32-1.197-.081-2.461.673-3.507.968-1.342 2.629-2.144 4.442-2.144.126 0 .253.01.378.031l14.184 2.364c2.023.122 3.769 1.829 3.957 3.841l2.808 10.765c.049.189.074.384.074.579-.001 2.847-2.102 5.163-4.684 5.163zm-15.209-4.592h15.12a.892.892 0 0 0 .157-.36l-2.769-10.616a2.365 2.365 0 0 1-.047-.222l-.02-.004-14.099-2.349a1.113 1.113 0 0 0-.461.144c.006.031.011.063.015.094l1.886 13.2c.072.047.156.092.218.113zm87.23-28.365h-88.377a2.298 2.298 0 0 1-2.283-2.545l4.685-42.988a2.295 2.295 0 0 1 2.283-2.047h79.633c1.185 0 2.175.901 2.286 2.08l4.059 42.988a2.295 2.295 0 0 1-2.286 2.512zm-85.818-4.592h83.295l-3.626-38.395H244.48l-4.184 38.395z"/><path fill="#FFF" d="M300.731 200.035h-37a2.296 2.296 0 0 1 0-4.592h37a2.296 2.296 0 0 1 0 4.592zM298.555 208.741h-32.647a2.296 2.296 0 0 1 0-4.592h32.647a2.296 2.296 0 0 1 0 4.592z"/><path fill="#FFF" d="M283.223 292.942c-61.655 0-111.815-50.16-111.815-111.816S221.568 69.31 283.223 69.31s111.816 50.16 111.816 111.816-50.161 111.816-111.816 111.816zm0-219.039C224.1 73.903 176 122.003 176 181.127S224.1 288.35 283.223 288.35s107.224-48.1 107.224-107.224S342.346 73.903 283.223 73.903z"/></g><g><path fill="#FFF" d="M557.733 293.229c-61.734 0-111.959-50.225-111.959-111.959S495.999 69.311 557.733 69.311s111.959 50.225 111.959 111.959-50.224 111.959-111.959 111.959zm0-219.32c-59.199 0-107.361 48.162-107.361 107.361s48.162 107.361 107.361 107.361c59.199 0 107.361-48.162 107.361-107.361S616.933 73.909 557.733 73.909z"/></g><g><path fill="#FFF" d="M698.053 526.996c-61.734 0-111.958-50.225-111.958-111.959s50.224-111.959 111.958-111.959 111.959 50.225 111.959 111.959-50.224 111.959-111.959 111.959zm0-219.32c-59.198 0-107.36 48.162-107.36 107.361s48.162 107.361 107.36 107.361c59.199 0 107.361-48.162 107.361-107.361s-48.161-107.361-107.361-107.361z"/></g><g><path fill="#FFF" d="M493.005 346.505a2.498 2.498 0 0 1-1.768-4.267l9.241-9.241a2.498 2.498 0 0 1 3.535 0 2.498 2.498 0 0 1 0 3.535l-9.241 9.241a2.489 2.489 0 0 1-1.767.732z"/></g><g><path fill="#FFF" d="M520.004 379.003h-13.069a2.5 2.5 0 1 1 0-5h13.069a2.5 2.5 0 1 1 0 5z"/></g><g><path fill="#FFF" d="M507.683 417.047c-.64 0-1.279-.244-1.768-.732l-9.241-9.241a2.498 2.498 0 0 1 0-3.535 2.498 2.498 0 0 1 3.535 0l9.241 9.241a2.498 2.498 0 0 1-1.767 4.267z"/></g></svg>