<svg xmlns="http://www.w3.org/2000/svg" viewBox="0 0 840 610"><path fill="#FFF" d="M294.214 169.281c-28.502 0-51.689-23.188-51.689-51.69 0-28.501 23.188-51.689 51.689-51.689s51.69 23.188 51.69 51.689c0 28.502-23.188 51.69-51.69 51.69zm0-98.38c-25.745 0-46.689 20.945-46.689 46.689 0 25.745 20.944 46.69 46.689 46.69s46.69-20.945 46.69-46.69c0-25.744-20.945-46.689-46.69-46.689z"/><path fill="#FFF" d="M314.652 126.938c-.222 0-.448-.03-.673-.092l-21.366-5.963a2.5 2.5 0 0 1-.995-4.271l22.809-20.417a2.5 2.5 0 0 1 3.334 3.725l-19.408 17.374 16.971 4.736a2.5 2.5 0 0 1-.672 4.908zM263.969 119.981h-14.41a2.5 2.5 0 1 1 0-5h14.41a2.5 2.5 0 1 1 0 5zM338.614 119.981h-14.41a2.5 2.5 0 1 1 0-5h14.41a2.5 2.5 0 1 1 0 5zM294.03 163.956a2.5 2.5 0 0 1-2.5-2.5v-14.41a2.5 2.5 0 1 1 5 0v14.41a2.5 2.5 0 0 1-2.5 2.5zM294.03 90.416a2.5 2.5 0 0 1-2.5-2.5v-14.41a2.5 2.5 0 1 1 5 0v14.41a2.5 2.5 0 0 1-2.5 2.5zM500.958 297.96c-5.038 0-9.784-1.557-13.593-4.423-1.386.954-2.894 1.462-4.392 1.462H356.406c-2.029 0-4.015-.852-5.565-2.3-3.886 3.272-9.075 5.104-14.657 5.104-9.4 0-17.132-4.964-20.215-12.804h-6.128c-4.71 0-8.841-4.042-8.841-8.65v-71.642c0-4.394 3.801-7.708 8.841-7.708h217.312c5.043 0 8.847 3.313 8.847 7.708v71.642c0 4.608-4.134 8.65-8.847 8.65h-5.978c-3.098 7.936-10.832 12.961-20.217 12.961zm-13.615-10.202a2.5 2.5 0 0 1 1.708.675c3.119 2.919 7.348 4.527 11.907 4.527 7.791 0 14.08-4.376 16.022-11.149a2.5 2.5 0 0 1 2.403-1.811h7.77c1.978 0 3.847-1.774 3.847-3.65v-71.642c0-1.986-2.301-2.708-3.847-2.708H309.841c-1.544 0-3.841.721-3.841 2.708v71.642c0 1.876 1.866 3.65 3.841 3.65h7.917a2.5 2.5 0 0 1 2.403 1.811c1.916 6.678 8.205 10.993 16.022 10.993 5.24 0 9.991-2.004 13.033-5.498a2.5 2.5 0 0 1 4.113.507c.555 1.089 1.721 2.187 3.076 2.187h126.567c.763 0 1.688-.525 2.535-1.44a2.502 2.502 0 0 1 1.745-.8l.091-.002zM440.218 281H425.4c-4.788 0-7.4-6.876-7.4-10.41v-51.114c0-3.995 2.836-6.477 7.4-6.477h14.817c4.728 0 7.782 2.542 7.782 6.477v51.114c.001 3.575-3.029 10.41-7.781 10.41zM425.4 218c-2.4 0-2.4.889-2.4 1.477v51.114c0 2.172 1.62 5.179 2.451 5.415l14.767-.006c.85-.186 2.782-3.343 2.782-5.41v-51.114c0-1.22-1.513-1.477-2.782-1.477H425.4zm-14.232 63h-14.815c-4.448 0-8.353-6.488-8.353-10.41v-51.114c0-3.813 3.435-6.477 8.353-6.477h14.815c5.832 0 5.832 4.705 5.832 6.477v51.114c0 6.518-2.181 10.41-5.832 10.41zm-14.815-63c-1.296 0-3.353.401-3.353 1.477v51.114c0 2.006 2.37 5.263 3.375 5.411l14.606-.002c.396-.501 1.019-2.395 1.019-5.41v-51.114c0-.809-.058-1.224-.104-1.426a4.248 4.248 0 0 0-.729-.05h-14.814zm118.501 44h-14.326c-4.719 0-9.527-4.81-9.527-9.531V220.23c0-4.85 5.021-8.23 9.527-8.23h14.326c4.645 0 8.146 3.538 8.146 8.23v32.238c0 4.604-3.273 9.532-8.146 9.532zm-14.327-45c-2.038 0-4.527 1.491-4.527 3.23v32.238c0 1.906 2.623 4.531 4.527 4.531h14.326c1.694 0 3.146-2.492 3.146-4.531V220.23c0-1.932-1.265-3.23-3.146-3.23h-14.326zm-18.748 45h-14.327c-4.682 0-9.452-4.81-9.452-9.531V220.23c0-4.85 4.981-8.23 9.452-8.23h14.327c4.687 0 8.221 3.538 8.221 8.23v32.238c0 4.509-3.376 9.532-8.221 9.532zm-14.327-45c-2.004 0-4.452 1.491-4.452 3.23v32.238c0 1.948 2.538 4.531 4.452 4.531h14.327c1.734 0 3.221-2.492 3.221-4.531V220.23c0-1.932-1.294-3.23-3.221-3.23h-14.327zm-96.985 45h-13.989c-4.754 0-8.478-4.014-8.478-9.139v-32.237c0-4.997 3.565-8.624 8.478-8.624h13.989c4.864 0 8.533 3.708 8.533 8.624v32.237c0 5.125-3.748 9.139-8.533 9.139zm-13.989-45c-2.112 0-3.478 1.422-3.478 3.624v32.237c0 2.035 1.301 4.139 3.478 4.139h13.989c1.981 0 3.533-1.818 3.533-4.139v-32.237c0-2.201-1.387-3.624-3.533-3.624h-13.989zm-19.175 45h-14.329c-4.77 0-7.974-4.928-7.974-9.531V220.23c0-4.769 3.354-8.23 7.974-8.23h14.329c4.796 0 8.697 3.692 8.697 8.23v32.238c0 4.408-3.799 9.532-8.697 9.532zm-14.329-45c-2.192 0-2.974 1.669-2.974 3.23v32.238c0 2.052 1.326 4.531 2.974 4.531h14.329c1.728 0 3.697-2.414 3.697-4.531V220.23c0-1.995-1.919-3.23-3.697-3.23h-14.329zM741.948 297.96c-5.038 0-9.784-1.557-13.594-4.423-1.385.954-2.893 1.462-4.392 1.462H597.396c-2.029 0-4.016-.852-5.566-2.3-3.885 3.272-9.074 5.104-14.656 5.104-9.4 0-17.132-4.964-20.215-12.804h-6.129c-4.704 0-8.83-4.042-8.83-8.65v-71.642c0-4.394 3.796-7.708 8.83-7.708h217.312c5.05 0 8.857 3.313 8.857 7.708v71.642c0 4.608-4.139 8.65-8.857 8.65h-5.978c-3.098 7.936-10.831 12.961-20.216 12.961zm-13.616-10.202a2.5 2.5 0 0 1 1.708.675c3.119 2.919 7.349 4.527 11.908 4.527 7.791 0 14.079-4.376 16.021-11.149a2.5 2.5 0 0 1 2.403-1.811h7.77c1.982 0 3.857-1.774 3.857-3.65v-71.642c0-1.986-2.307-2.708-3.857-2.708H550.83c-1.325 0-3.83.566-3.83 2.708v71.642c0 1.876 1.861 3.65 3.83 3.65h7.918a2.5 2.5 0 0 1 2.403 1.811c1.916 6.678 8.205 10.993 16.022 10.993 5.24 0 9.991-2.004 13.032-5.498a2.5 2.5 0 0 1 4.113.507c.555 1.089 1.721 2.187 3.077 2.187h126.566c.764 0 1.688-.525 2.534-1.439a2.499 2.499 0 0 1 1.745-.801l.092-.002zM681.208 281h-14.817c-4.782 0-7.391-6.876-7.391-10.41v-51.114c0-3.995 2.832-6.477 7.391-6.477h14.817c4.733 0 7.792 2.542 7.792 6.477v51.114c0 3.575-3.034 10.41-7.792 10.41zm-14.817-63c-2.391 0-2.391.889-2.391 1.477v51.114c0 2.171 1.614 5.179 2.441 5.415l14.767-.006c.853-.185 2.792-3.342 2.792-5.41v-51.114c0-1.22-1.519-1.477-2.792-1.477h-14.817zm-14.233 63h-14.816c-4.443 0-8.342-6.488-8.342-10.41v-51.114c0-3.813 3.431-6.477 8.342-6.477h14.816c5.842 0 5.842 4.705 5.842 6.477v51.114c0 6.518-2.184 10.41-5.842 10.41zm-14.816-63c-.867 0-3.342.271-3.342 1.477v51.114c0 2.005 2.363 5.262 3.365 5.411l14.609-.002c.397-.5 1.026-2.394 1.026-5.41v-51.114c0-.811-.059-1.225-.104-1.425a4.142 4.142 0 0 0-.737-.052h-14.817zm118.502 44h-14.327c-4.714 0-9.517-4.81-9.517-9.531V220.23c0-4.85 5.016-8.23 9.517-8.23h14.327c4.649 0 8.156 3.538 8.156 8.23v32.238c0 4.604-3.277 9.532-8.156 9.532zm-14.327-45c-2.033 0-4.517 1.491-4.517 3.23v32.238c0 1.906 2.617 4.531 4.517 4.531h14.327c1.7 0 3.156-2.492 3.156-4.531V220.23c0-1.932-1.269-3.23-3.156-3.23h-14.327zm-18.747 45h-14.328c-4.677 0-9.441-4.81-9.441-9.531V220.23c0-4.85 4.976-8.23 9.441-8.23h14.328c4.692 0 8.23 3.538 8.23 8.23v32.238c0 4.509-3.38 9.532-8.23 9.532zm-14.329-45c-1.999 0-4.441 1.491-4.441 3.23v32.238c0 1.948 2.532 4.531 4.441 4.531h14.328c1.74 0 3.23-2.492 3.23-4.531V220.23c0-1.902-1.328-3.23-3.23-3.23h-14.328zm-96.984 45h-13.989c-4.748 0-8.468-4.014-8.468-9.139v-32.237c0-4.997 3.562-8.624 8.468-8.624h13.989c4.87 0 8.543 3.708 8.543 8.624v32.237c0 5.125-3.753 9.139-8.543 9.139zm-13.989-45c-2.106 0-3.468 1.422-3.468 3.624v32.237c0 2.36 1.491 4.139 3.468 4.139h13.989c1.986 0 3.543-1.818 3.543-4.139v-32.237c0-2.167-1.424-3.624-3.543-3.624h-13.989zm-19.175 45h-14.329c-4.764 0-7.964-4.928-7.964-9.531V220.23c0-4.769 3.35-8.23 7.964-8.23h14.329c4.801 0 8.707 3.692 8.707 8.23v32.238c0 4.408-3.804 9.532-8.707 9.532zm-14.329-45c-2.186 0-2.964 1.669-2.964 3.23v32.238c0 2.052 1.322 4.531 2.964 4.531h14.329c1.732 0 3.707-2.414 3.707-4.531V220.23c0-1.995-1.924-3.23-3.707-3.23h-14.329zM138.19 298.616c-4.902 0-9.193-2.555-12.435-4.616h-75.94c-3.817 0-5.815-4.674-5.815-9.292v-14.329c0-4.661 1.998-9.379 5.815-9.379h.862c.181-1.641.447-3.819.826-5.669 2.523-12.363 16.249-54.801 16.833-56.601a2.5 2.5 0 0 1 2.378-1.73H92v-2.602c0-5.083 5.368-7.398 10.356-7.398h24.013c5.761 0 9.631 2.973 9.631 7.398V197h154.177c2.2 0 4.823 1.357 4.823 7.82v70.942c0 6.808-2.623 8.237-4.823 8.237h-4.76c-2.676 8.761-10.589 14.311-20.698 14.311-5.13 0-9.647-2.124-13.437-4.311H150.641c-3.25 2.065-7.545 4.617-12.451 4.617zM50.087 289h76.398c.478 0 .944.137 1.347.394 2.945 1.883 6.604 4.223 10.358 4.223 3.762 0 7.425-2.339 10.369-4.219a2.528 2.528 0 0 1 1.352-.397h102.047c.446 0 .885.12 1.27.346 3.326 1.96 7.293 3.964 11.491 3.964 8.379 0 14.78-4.832 16.307-12.311a2.499 2.499 0 0 1 2.449-2h6.161c.146-.422.364-1.364.364-3.237V204.82c0-1.624-.167-2.442-.287-2.82H133.5a2.5 2.5 0 0 1-2.5-2.5v-5.102c0-2.371-4.441-2.398-4.631-2.398h-24.013c-2.586 0-5.356.963-5.356 2.398v5.102a2.5 2.5 0 0 1-2.5 2.5H72.536c-2.654 8.255-13.948 43.624-16.134 54.333-.418 2.044-.698 4.67-.865 6.239-.061.563-.108 1.006-.145 1.268a2.5 2.5 0 0 1-2.477 2.161h-2.813c-.435.507-1.103 2.223-1.103 4.379v14.329c.001 2.122.66 3.802 1.088 4.291zm112.903-8h-14.816c-4.433 0-8.174-6.394-8.174-10.41v-51.114c0-3.874 3.285-6.477 8.174-6.477h14.816c4.39 0 7.01 2.421 7.01 6.477v51.114c0 3.517-2.117 10.41-7.01 10.41zm-14.816-63c-.032 0-3.174.017-3.174 1.477v51.114c0 1.997 2.246 5.256 3.199 5.411L162.99 276c.671-.274 2.01-3.116 2.01-5.41v-51.114c0-.889 0-1.477-2.01-1.477h-14.816zm-17.902 63h-14.816c-4.504 0-8.456-6.488-8.456-10.41v-51.114c0-3.813 3.478-6.477 8.456-6.477h14.816c4.275 0 6.728 2.361 6.728 6.477v51.114c0 4.199-2.138 10.41-6.728 10.41zm-14.816-63c-1.394 0-3.456.469-3.456 1.477v51.114c0 1.96 2.469 5.271 3.478 5.411l14.725-.002c.692-.4 1.797-3.095 1.797-5.41v-51.114c0-1.134 0-1.477-1.728-1.477h-14.816zm123.756 44h-14.327c-5.004 0-8.885-5.124-8.885-9.531V220.23c0-4.538 3.985-8.23 8.885-8.23h14.327c4.846 0 8.788 3.692 8.788 8.23v32.238c0 4.408-3.839 9.532-8.788 9.532zm-14.327-45c-1.876 0-3.885 1.298-3.885 3.23v32.238c0 2.075 2.105 4.531 3.885 4.531h14.327c1.734 0 3.788-2.456 3.788-4.531V220.23c0-1.933-1.959-3.23-3.788-3.23h-14.327zm-18.747 45H191.81c-4.961 0-8.81-5.124-8.81-9.531V220.23c0-4.538 3.952-8.23 8.81-8.23h14.328c4.887 0 8.862 3.692 8.862 8.23v32.238c0 4.408-3.871 9.532-8.862 9.532zm-14.328-45c-1.84 0-3.81 1.298-3.81 3.23v32.238c0 2.075 2.065 4.531 3.81 4.531h14.328c1.769 0 3.862-2.456 3.862-4.531V220.23c0-1.933-1.997-3.23-3.862-3.23H191.81zM85.542 262H71.213c-4.512 0-8.47-4.206-8.47-9.001 0-.158.015-.315.045-.47l5.931-30.983c.185-4.603 5.139-9.546 9.658-9.546h7.165c4.743 0 8.458 3.615 8.458 8.23v32.238c0 4.5-3.617 9.532-8.458 9.532zm-17.793-8.793c.107 1.978 1.74 3.793 3.464 3.793h14.329c1.648 0 3.458-2.372 3.458-4.531V220.23c0-1.842-1.486-3.23-3.458-3.23h-7.165c-1.874 0-4.664 2.877-4.664 4.811 0 .158-.015.315-.045.47l-5.919 30.926zM459.854 481.218h-1c-29.5 0-53.5-24-53.5-53.5v-12.93c0-29.5 24-53.5 53.5-53.5h1c29.5 0 53.5 24 53.5 53.5v12.93c0 29.5-24 53.5-53.5 53.5zm-1-114.93c-26.743 0-48.5 21.757-48.5 48.5v12.93c0 26.743 21.757 48.5 48.5 48.5h1c26.743 0 48.5-21.757 48.5-48.5v-12.93c0-26.743-21.757-48.5-48.5-48.5h-1z"/><circle fill="#FFF" cx="428.854" cy="410.718" r="5.5"/><circle fill="#FFF" cx="466.854" cy="410.718" r="5.5"/><path fill="#FFF" d="M443.854 435.218a2.5 2.5 0 0 1-2.5-2.5v-36a2.5 2.5 0 1 1 5 0v36a2.5 2.5 0 0 1-2.5 2.5z"/><path fill="#FFF" d="M447.246 447.997c-.578 0-1.156-.023-1.734-.068-11.395-.894-18.387-10.338-18.679-10.74a2.5 2.5 0 0 1 4.041-2.944c.109.147 6.029 8.017 15.071 8.704 6.245.473 12.697-2.552 19.142-8.997a2.498 2.498 0 0 1 3.535 0 2.498 2.498 0 0 1 0 3.535c-6.981 6.98-14.164 10.51-21.376 10.51zM550.151 541.843a2.5 2.5 0 0 1-2.5-2.5v-14.625c0-17.92-11.249-32.5-25.076-32.5H399.431c-13.827 0-25.076 14.58-25.076 32.5v14.625a2.5 2.5 0 1 1-5 0v-14.625c0-20.678 13.492-37.5 30.076-37.5h123.145c16.584 0 30.076 16.822 30.076 37.5v14.625a2.501 2.501 0 0 1-2.501 2.5z"/><path fill="#FFF" d="M703.144 541.843a2.5 2.5 0 0 1-2.5-2.5v-14.625c0-17.92-11.249-32.5-25.076-32.5H552.423c-13.827 0-25.076 14.58-25.076 32.5v14.625a2.5 2.5 0 1 1-5 0v-14.625c0-20.678 13.492-37.5 30.076-37.5h123.145c16.584 0 30.076 16.822 30.076 37.5v14.625a2.5 2.5 0 0 1-2.5 2.5zM819.496 308.073H18a2.5 2.5 0 1 1 0-5h801.496a2.5 2.5 0 1 1 0 5zM609.003 481.001h-1c-29.5 0-53.5-24-53.5-53.5v-12.93c0-29.5 24-53.5 53.5-53.5h1c29.5 0 53.5 24 53.5 53.5v12.93c0 29.5-24 53.5-53.5 53.5zm-1-114.929c-26.743 0-48.5 21.757-48.5 48.5v12.93c0 26.743 21.757 48.5 48.5 48.5h1c26.743 0 48.5-21.757 48.5-48.5v-12.93c0-26.743-21.757-48.5-48.5-48.5h-1z"/><circle fill="#FFF" cx="578.003" cy="410.501" r="5.5"/><circle fill="#FFF" cx="616.003" cy="410.501" r="5.5"/><path fill="#FFF" d="M593.003 435.001a2.5 2.5 0 0 1-2.5-2.5v-36a2.5 2.5 0 1 1 5 0v36a2.5 2.5 0 0 1-2.5 2.5z"/><path fill="#FFF" d="M596.395 447.78c-.578 0-1.156-.023-1.734-.068-11.395-.894-18.387-10.338-18.679-10.74a2.5 2.5 0 0 1 4.041-2.944c.109.147 6.029 8.017 15.071 8.704 6.253.473 12.696-2.552 19.142-8.997a2.498 2.498 0 0 1 3.535 0 2.498 2.498 0 0 1 0 3.535c-6.982 6.98-14.165 10.51-21.376 10.51zM507.636 403.767c-2.565 0-8.12-.463-14.458-3.843-3.89-2.075-6.097-6.603-6.384-13.096-.028-.656-.037-1.3-.029-1.922l-6.229 5.662c-11.737 10.671-56.859-3.791-61.965-5.476a2.5 2.5 0 1 1 1.566-4.748c18.217 6.007 49.811 13.091 57.035 6.524l11-10a2.5 2.5 0 0 1 4.133 2.34c-.726 3.667-1.562 13.75 3.226 16.304 7.186 3.833 12.979 3.229 13.042 3.222 1.388-.157 2.61.831 2.766 2.203s-.831 2.61-2.203 2.765c-.077.008-.608.065-1.5.065zM658.004 408.001h-.06c-40.059-.932-50.041-13.423-57.313-26.505-4.576 7.981-12.512 14.632-23.234 19.414-9.448 4.213-17.668 5.51-18.014 5.562a2.492 2.492 0 0 1-2.85-2.089 2.502 2.502 0 0 1 2.088-2.853c.311-.048 31.193-5.074 39.554-26.44a2.5 2.5 0 0 1 2.18-1.584 2.522 2.522 0 0 1 2.353 1.315l.393.735c7.287 13.627 14.17 26.498 54.962 27.446a2.499 2.499 0 0 1-.059 4.999zM693.242 486.5c-5.978 0-14.622-1.596-21.857-9.2-10.268-10.79-14.769-30.447-13.379-58.423a2.5 2.5 0 0 1 1.228-2.03c.294-.173 7.266-4.232 14.538-4.232 4.351 0 7.934 1.417 10.649 4.211 3.979 4.095 5.857 11.075 5.581 20.746-.947 33.162 14.145 42.698 14.297 42.791a2.502 2.502 0 0 1-.438 4.486c-.184.068-4.586 1.651-10.619 1.651zm-30.307-65.96c-1.108 25.797 2.951 43.729 12.072 53.314 4.828 5.074 10.963 7.646 18.235 7.646 1.648 0 3.158-.14 4.447-.329-5.179-5.515-13.411-18.344-12.686-43.742.236-8.27-1.166-14.029-4.169-17.119-1.763-1.814-4.073-2.696-7.063-2.696-4.374.002-8.797 1.912-10.836 2.926zM242.564 346.721h-77.763a2.5 2.5 0 0 1-1.479-.484l-37.628-27.593a2.5 2.5 0 0 1 2.957-4.033l36.968 27.109h67.637l-39.606-22.93a2.5 2.5 0 1 1 2.506-4.327l47.661 27.593a2.499 2.499 0 0 1 1.161 2.812 2.498 2.498 0 0 1-2.414 1.853zM508.337 346.721h-77.764c-.532 0-1.05-.169-1.479-.484l-37.627-27.593a2.5 2.5 0 0 1 2.957-4.033l36.967 27.109h67.638l-39.606-22.93a2.5 2.5 0 1 1 2.506-4.327l47.661 27.593a2.499 2.499 0 0 1 1.161 2.812 2.498 2.498 0 0 1-2.414 1.853zM761.499 346.721h-77.763a2.5 2.5 0 0 1-1.479-.484l-37.628-27.593a2.5 2.5 0 0 1 2.957-4.033l36.968 27.109h67.637l-39.606-22.93a2.5 2.5 0 1 1 2.506-4.327l47.661 27.593a2.499 2.499 0 0 1 1.161 2.812 2.498 2.498 0 0 1-2.414 1.853zM381.598 399.649c-.64 0-1.279-.244-1.768-.732l-9.241-9.241a2.498 2.498 0 0 1 0-3.535 2.498 2.498 0 0 1 3.535 0l9.241 9.241a2.498 2.498 0 0 1-1.767 4.267zM376.068 420.664H363a2.5 2.5 0 1 1 0-5h13.068a2.5 2.5 0 1 1 0 5zM373.184 449.267a2.498 2.498 0 0 1-1.768-4.267l9.241-9.241a2.498 2.498 0 0 1 3.535 0 2.498 2.498 0 0 1 0 3.535l-9.241 9.241a2.492 2.492 0 0 1-1.767.732z"/></svg>